<?xml version="1.0" encoding="UTF-8" standalone="no"?><svg xmlns="http://www.w3.org/2000/svg" xmlns:xlink="http://www.w3.org/1999/xlink" contentScriptType="application/ecmascript" contentStyleType="text/css" height="1090px" preserveAspectRatio="none" style="width:912px;height:1090px;background:#FFFFFF;" version="1.1" viewBox="0 0 912 1090" width="912px" zoomAndPan="magnify"><defs><filter height="300%" id="f3r537ba1f4sh" width="300%" x="-1" y="-1"><feGaussianBlur result="blurOut" stdDeviation="2.0"/><feColorMatrix in="blurOut" result="blurOut2" type="matrix" values="0 0 0 0 0 0 0 0 0 0 0 0 0 0 0 0 0 0 .4 0"/><feOffset dx="4.0" dy="4.0" in="blurOut2" result="blurOut3"/><feBlend in="SourceGraphic" in2="blurOut3" mode="normal"/></filter></defs><g><text fill="#000000" font-family="sans-serif" font-size="18" lengthAdjust="spacing" textLength="124" x="393.5" y="30.6855">Quest 2 Design</text><rect fill="#FFFFFF" filter="url(#f3r537ba1f4sh)" height="30.3516" style="stroke:#A80036;stroke-width:1.0;" width="10" x="305" y="235.5625"/><rect fill="#FFFFFF" filter="url(#f3r537ba1f4sh)" height="30.3516" style="stroke:#A80036;stroke-width:1.0;" width="10" x="305" y="459.1563"/><rect fill="#FFFFFF" filter="url(#f3r537ba1f4sh)" height="73.8789" style="stroke:#A80036;stroke-width:1.0;" width="10" x="305" y="593.5625"/><rect fill="#FFFFFF" filter="url(#f3r537ba1f4sh)" height="51.7031" style="stroke:#A80036;stroke-width:1.0;" width="10" x="305" y="907.0469"/><rect fill="#FFFFFF" filter="url(#f3r537ba1f4sh)" height="8" style="stroke:#FFFFFF;stroke-width:1.0;" width="10" x="548.5" y="265.9141"/><line style="stroke:#A80036;stroke-width:1.0;" x1="548.5" x2="548.5" y1="265.9141" y2="273.9141"/><line style="stroke:#A80036;stroke-width:1.0;" x1="558.5" x2="558.5" y1="265.9141" y2="273.9141"/><line style="stroke:#A80036;stroke-width:1.0;" x1="548.5" x2="558.5" y1="265.9141" y2="265.9141"/><rect fill="#FFFFFF" filter="url(#f3r537ba1f4sh)" height="108.0547" style="stroke:#FFFFFF;stroke-width:1.0;" width="10" x="548.5" y="315.75"/><line style="stroke:#A80036;stroke-width:1.0;" x1="548.5" x2="548.5" y1="315.75" y2="423.8047"/><line style="stroke:#A80036;stroke-width:1.0;" x1="558.5" x2="558.5" y1="315.75" y2="423.8047"/><line style="stroke:#A80036;stroke-width:1.0;" x1="548.5" x2="558.5" y1="423.8047" y2="423.8047"/><rect fill="#FFFFFF" filter="url(#f3r537ba1f4sh)" height="64.7031" style="stroke:#FFFFFF;stroke-width:1.0;" width="10" x="548.5" y="623.9141"/><line style="stroke:#A80036;stroke-width:1.0;" x1="548.5" x2="548.5" y1="623.9141" y2="688.6172"/><line style="stroke:#A80036;stroke-width:1.0;" x1="558.5" x2="558.5" y1="623.9141" y2="688.6172"/><line style="stroke:#A80036;stroke-width:1.0;" x1="548.5" x2="558.5" y1="623.9141" y2="623.9141"/><rect fill="#FFFFFF" filter="url(#f3r537ba1f4sh)" height="52.7031" style="stroke:#FFFFFF;stroke-width:1.0;" width="10" x="548.5" y="730.4531"/><line style="stroke:#A80036;stroke-width:1.0;" x1="548.5" x2="548.5" y1="730.4531" y2="783.1563"/><line style="stroke:#A80036;stroke-width:1.0;" x1="558.5" x2="558.5" y1="730.4531" y2="783.1563"/><line style="stroke:#A80036;stroke-width:1.0;" x1="548.5" x2="558.5" y1="783.1563" y2="783.1563"/><rect fill="#FFFFFF" filter="url(#f3r537ba1f4sh)" height="21.1758" style="stroke:#FFFFFF;stroke-width:1.0;" width="10" x="657.5" y="667.4414"/><line style="stroke:#A80036;stroke-width:1.0;" x1="657.5" x2="657.5" y1="667.4414" y2="688.6172"/><line style="stroke:#A80036;stroke-width:1.0;" x1="667.5" x2="667.5" y1="667.4414" y2="688.6172"/><line style="stroke:#A80036;stroke-width:1.0;" x1="657.5" x2="667.5" y1="667.4414" y2="667.4414"/><rect fill="#FFFFFF" filter="url(#f3r537ba1f4sh)" height="60.7031" style="stroke:#FFFFFF;stroke-width:1.0;" width="10" x="657.5" y="730.4531"/><line style="stroke:#A80036;stroke-width:1.0;" x1="657.5" x2="657.5" y1="730.4531" y2="791.1563"/><line style="stroke:#A80036;stroke-width:1.0;" x1="667.5" x2="667.5" y1="730.4531" y2="791.1563"/><rect fill="#FFFFFF" filter="url(#f3r537ba1f4sh)" height="74.0547" style="stroke:#FFFFFF;stroke-width:1.0;" width="10" x="657.5" y="832.9922"/><line style="stroke:#A80036;stroke-width:1.0;" x1="657.5" x2="657.5" y1="832.9922" y2="907.0469"/><line style="stroke:#A80036;stroke-width:1.0;" x1="667.5" x2="667.5" y1="832.9922" y2="907.0469"/><line style="stroke:#A80036;stroke-width:1.0;" x1="657.5" x2="667.5" y1="907.0469" y2="907.0469"/><rect fill="#FFFFFF" filter="url(#f3r537ba1f4sh)" height="139.4063" style="stroke:#A80036;stroke-width:1.0;" width="10" x="799" y="423.8047"/><line style="stroke:#A80036;stroke-width:1.0;" x1="113" x2="113" y1="126.25" y2="273.9141"/><line style="stroke:#A80036;stroke-width:1.0;stroke-dasharray:1.0,4.0;" x1="113" x2="113" y1="273.9141" y2="315.75"/><line style="stroke:#A80036;stroke-width:1.0;" x1="113" x2="113" y1="315.75" y2="688.6172"/><line style="stroke:#A80036;stroke-width:1.0;stroke-dasharray:1.0,4.0;" x1="113" x2="113" y1="688.6172" y2="730.4531"/><line style="stroke:#A80036;stroke-width:1.0;" x1="113" x2="113" y1="730.4531" y2="791.1563"/><line style="stroke:#A80036;stroke-width:1.0;stroke-dasharray:1.0,4.0;" x1="113" x2="113" y1="791.1563" y2="832.9922"/><line style="stroke:#A80036;stroke-width:1.0;" x1="113" x2="113" y1="832.9922" y2="966.75"/><line style="stroke:#A80036;stroke-width:1.0;stroke-dasharray:1.0,4.0;" x1="113" x2="113" y1="966.75" y2="994.75"/><line style="stroke:#A80036;stroke-width:1.0;" x1="113" x2="113" y1="994.75" y2="1004.75"/><line style="stroke:#A80036;stroke-width:1.0;" x1="310" x2="310" y1="199.9063" y2="273.9141"/><line style="stroke:#A80036;stroke-width:1.0;stroke-dasharray:1.0,4.0;" x1="310" x2="310" y1="273.9141" y2="315.75"/><line style="stroke:#A80036;stroke-width:1.0;" x1="310" x2="310" y1="315.75" y2="688.6172"/><line style="stroke:#A80036;stroke-width:1.0;stroke-dasharray:1.0,4.0;" x1="310" x2="310" y1="688.6172" y2="730.4531"/><line style="stroke:#A80036;stroke-width:1.0;" x1="310" x2="310" y1="730.4531" y2="791.1563"/><line style="stroke:#A80036;stroke-width:1.0;stroke-dasharray:1.0,4.0;" x1="310" x2="310" y1="791.1563" y2="832.9922"/><line style="stroke:#A80036;stroke-width:1.0;" x1="310" x2="310" y1="832.9922" y2="966.75"/><line style="stroke:#A80036;stroke-width:1.0;stroke-dasharray:1.0,4.0;" x1="310" x2="310" y1="966.75" y2="994.75"/><line style="stroke:#A80036;stroke-width:1.0;" x1="310" x2="310" y1="994.75" y2="1004.75"/><line style="stroke:#A80036;stroke-width:1.0;" x1="444" x2="444" y1="126.25" y2="273.9141"/><line style="stroke:#A80036;stroke-width:1.0;stroke-dasharray:1.0,4.0;" x1="444" x2="444" y1="273.9141" y2="315.75"/><line style="stroke:#A80036;stroke-width:1.0;" x1="444" x2="444" y1="315.75" y2="688.6172"/><line style="stroke:#A80036;stroke-width:1.0;stroke-dasharray:1.0,4.0;" x1="444" x2="444" y1="688.6172" y2="730.4531"/><line style="stroke:#A80036;stroke-width:1.0;" x1="444" x2="444" y1="730.4531" y2="791.1563"/><line style="stroke:#A80036;stroke-width:1.0;stroke-dasharray:1.0,4.0;" x1="444" x2="444" y1="791.1563" y2="832.9922"/><line style="stroke:#A80036;stroke-width:1.0;" x1="444" x2="444" y1="832.9922" y2="966.75"/><line style="stroke:#A80036;stroke-width:1.0;stroke-dasharray:1.0,4.0;" x1="444" x2="444" y1="966.75" y2="994.75"/><line style="stroke:#A80036;stroke-width:1.0;" x1="444" x2="444" y1="994.75" y2="1004.75"/><line style="stroke:#A80036;stroke-width:1.0;" x1="553" x2="553" y1="126.25" y2="273.9141"/><line style="stroke:#A80036;stroke-width:1.0;stroke-dasharray:1.0,4.0;" x1="553" x2="553" y1="273.9141" y2="315.75"/><line style="stroke:#A80036;stroke-width:1.0;" x1="553" x2="553" y1="315.75" y2="688.6172"/><line style="stroke:#A80036;stroke-width:1.0;stroke-dasharray:1.0,4.0;" x1="553" x2="553" y1="688.6172" y2="730.4531"/><line style="stroke:#A80036;stroke-width:1.0;" x1="553" x2="553" y1="730.4531" y2="791.1563"/><line style="stroke:#A80036;stroke-width:1.0;stroke-dasharray:1.0,4.0;" x1="553" x2="553" y1="791.1563" y2="832.9922"/><line style="stroke:#A80036;stroke-width:1.0;" x1="553" x2="553" y1="832.9922" y2="966.75"/><line style="stroke:#A80036;stroke-width:1.0;stroke-dasharray:1.0,4.0;" x1="553" x2="553" y1="966.75" y2="994.75"/><line style="stroke:#A80036;stroke-width:1.0;" x1="553" x2="553" y1="994.75" y2="1004.75"/><line style="stroke:#A80036;stroke-width:1.0;" x1="662" x2="662" y1="126.25" y2="273.9141"/><line style="stroke:#A80036;stroke-width:1.0;stroke-dasharray:1.0,4.0;" x1="662" x2="662" y1="273.9141" y2="315.75"/><line style="stroke:#A80036;stroke-width:1.0;" x1="662" x2="662" y1="315.75" y2="688.6172"/><line style="stroke:#A80036;stroke-width:1.0;stroke-dasharray:1.0,4.0;" x1="662" x2="662" y1="688.6172" y2="730.4531"/><line style="stroke:#A80036;stroke-width:1.0;" x1="662" x2="662" y1="730.4531" y2="791.1563"/><line style="stroke:#A80036;stroke-width:1.0;stroke-dasharray:1.0,4.0;" x1="662" x2="662" y1="791.1563" y2="832.9922"/><line style="stroke:#A80036;stroke-width:1.0;" x1="662" x2="662" y1="832.9922" y2="966.75"/><line style="stroke:#A80036;stroke-width:1.0;stroke-dasharray:1.0,4.0;" x1="662" x2="662" y1="966.75" y2="994.75"/><line style="stroke:#A80036;stroke-width:1.0;" x1="662" x2="662" y1="994.75" y2="1004.75"/><line style="stroke:#A80036;stroke-width:1.0;" x1="804" x2="804" y1="126.25" y2="273.9141"/><line style="stroke:#A80036;stroke-width:1.0;stroke-dasharray:1.0,4.0;" x1="804" x2="804" y1="273.9141" y2="315.75"/><line style="stroke:#A80036;stroke-width:1.0;" x1="804" x2="804" y1="315.75" y2="688.6172"/><line style="stroke:#A80036;stroke-width:1.0;stroke-dasharray:1.0,4.0;" x1="804" x2="804" y1="688.6172" y2="730.4531"/><line style="stroke:#A80036;stroke-width:1.0;" x1="804" x2="804" y1="730.4531" y2="791.1563"/><line style="stroke:#A80036;stroke-width:1.0;stroke-dasharray:1.0,4.0;" x1="804" x2="804" y1="791.1563" y2="832.9922"/><line style="stroke:#A80036;stroke-width:1.0;" x1="804" x2="804" y1="832.9922" y2="966.75"/><line style="stroke:#A80036;stroke-width:1.0;stroke-dasharray:1.0,4.0;" x1="804" x2="804" y1="966.75" y2="994.75"/><line style="stroke:#A80036;stroke-width:1.0;" x1="804" x2="804" y1="994.75" y2="1004.75"/><rect fill="#FEFECE" filter="url(#f3r537ba1f4sh)" height="31.6094" style="stroke:#A80036;stroke-width:1.5;" width="113" x="55" y="89.6406"/><text fill="#000000" font-family="sans-serif" font-size="14" lengthAdjust="spacing" textLength="99" x="62" y="111.1738">Director / Editor</text><rect fill="#FEFECE" filter="url(#f3r537ba1f4sh)" height="31.6094" style="stroke:#A80036;stroke-width:1.5;" width="113" x="55" y="1003.75"/><text fill="#000000" font-family="sans-serif" font-size="14" lengthAdjust="spacing" textLength="99" x="62" y="1025.2832">Director / Editor</text><rect fill="#FEFECE" filter="url(#f3r537ba1f4sh)" height="31.6094" style="stroke:#A80036;stroke-width:1.5;" width="52" x="282" y="1003.75"/><text fill="#000000" font-family="sans-serif" font-size="14" lengthAdjust="spacing" textLength="38" x="289" y="1025.2832">Quest</text><text fill="#000000" font-family="sans-serif" font-size="14" lengthAdjust="spacing" textLength="86" x="398" y="123.1738">Player : Rider</text><ellipse cx="444" cy="51.6406" fill="#FEFECE" filter="url(#f3r537ba1f4sh)" rx="8" ry="8" style="stroke:#A80036;stroke-width:2.0;"/><path d="M444,59.6406 L444,86.6406 M431,67.6406 L457,67.6406 M444,86.6406 L431,101.6406 M444,86.6406 L457,101.6406 " fill="none" filter="url(#f3r537ba1f4sh)" style="stroke:#A80036;stroke-width:2.0;"/><text fill="#000000" font-family="sans-serif" font-size="14" lengthAdjust="spacing" textLength="86" x="398" y="1018.2832">Player : Rider</text><ellipse cx="444" cy="1031.3594" fill="#FEFECE" filter="url(#f3r537ba1f4sh)" rx="8" ry="8" style="stroke:#A80036;stroke-width:2.0;"/><path d="M444,1039.3594 L444,1066.3594 M431,1047.3594 L457,1047.3594 M444,1066.3594 L431,1081.3594 M444,1066.3594 L457,1081.3594 " fill="none" filter="url(#f3r537ba1f4sh)" style="stroke:#A80036;stroke-width:2.0;"/><text fill="#000000" font-family="sans-serif" font-size="14" lengthAdjust="spacing" textLength="101" x="500" y="123.1738">FromNPC : NPC</text><ellipse cx="553.5" cy="92.6406" fill="#FEFECE" filter="url(#f3r537ba1f4sh)" rx="12" ry="12" style="stroke:#A80036;stroke-width:2.0;"/><line style="stroke:#A80036;stroke-width:2.0;" x1="541.5" x2="565.5" y1="106.6406" y2="106.6406"/><text fill="#000000" font-family="sans-serif" font-size="14" lengthAdjust="spacing" textLength="101" x="500" y="1018.2832">FromNPC : NPC</text><ellipse cx="553.5" cy="1037.3594" fill="#FEFECE" filter="url(#f3r537ba1f4sh)" rx="12" ry="12" style="stroke:#A80036;stroke-width:2.0;"/><line style="stroke:#A80036;stroke-width:2.0;" x1="541.5" x2="565.5" y1="1051.3594" y2="1051.3594"/><text fill="#000000" font-family="sans-serif" font-size="14" lengthAdjust="spacing" textLength="85" x="617" y="123.1738">ToNPC : NPC</text><ellipse cx="662.5" cy="92.6406" fill="#FEFECE" filter="url(#f3r537ba1f4sh)" rx="12" ry="12" style="stroke:#A80036;stroke-width:2.0;"/><line style="stroke:#A80036;stroke-width:2.0;" x1="650.5" x2="674.5" y1="106.6406" y2="106.6406"/><text fill="#000000" font-family="sans-serif" font-size="14" lengthAdjust="spacing" textLength="85" x="617" y="1018.2832">ToNPC : NPC</text><ellipse cx="662.5" cy="1037.3594" fill="#FEFECE" filter="url(#f3r537ba1f4sh)" rx="12" ry="12" style="stroke:#A80036;stroke-width:2.0;"/><line style="stroke:#A80036;stroke-width:2.0;" x1="650.5" x2="674.5" y1="1051.3594" y2="1051.3594"/><rect fill="#FEFECE" filter="url(#f3r537ba1f4sh)" height="31.6094" style="stroke:#A80036;stroke-width:1.5;" width="68" x="768" y="89.6406"/><text fill="#000000" font-family="sans-serif" font-size="14" lengthAdjust="spacing" textLength="54" x="775" y="111.1738">Quest UI</text><rect fill="#FEFECE" filter="url(#f3r537ba1f4sh)" height="31.6094" style="stroke:#A80036;stroke-width:1.5;" width="68" x="768" y="1003.75"/><text fill="#000000" font-family="sans-serif" font-size="14" lengthAdjust="spacing" textLength="54" x="775" y="1025.2832">Quest UI</text><rect fill="#FFFFFF" filter="url(#f3r537ba1f4sh)" height="30.3516" style="stroke:#A80036;stroke-width:1.0;" width="10" x="305" y="235.5625"/><rect fill="#FFFFFF" filter="url(#f3r537ba1f4sh)" height="30.3516" style="stroke:#A80036;stroke-width:1.0;" width="10" x="305" y="459.1563"/><rect fill="#FFFFFF" filter="url(#f3r537ba1f4sh)" height="73.8789" style="stroke:#A80036;stroke-width:1.0;" width="10" x="305" y="593.5625"/><rect fill="#FFFFFF" filter="url(#f3r537ba1f4sh)" height="51.7031" style="stroke:#A80036;stroke-width:1.0;" width="10" x="305" y="907.0469"/><rect fill="#FFFFFF" filter="url(#f3r537ba1f4sh)" height="8" style="stroke:#FFFFFF;stroke-width:1.0;" width="10" x="548.5" y="265.9141"/><line style="stroke:#A80036;stroke-width:1.0;" x1="548.5" x2="548.5" y1="265.9141" y2="273.9141"/><line style="stroke:#A80036;stroke-width:1.0;" x1="558.5" x2="558.5" y1="265.9141" y2="273.9141"/><line style="stroke:#A80036;stroke-width:1.0;" x1="548.5" x2="558.5" y1="265.9141" y2="265.9141"/><rect fill="#FFFFFF" filter="url(#f3r537ba1f4sh)" height="108.0547" style="stroke:#FFFFFF;stroke-width:1.0;" width="10" x="548.5" y="315.75"/><line style="stroke:#A80036;stroke-width:1.0;" x1="548.5" x2="548.5" y1="315.75" y2="423.8047"/><line style="stroke:#A80036;stroke-width:1.0;" x1="558.5" x2="558.5" y1="315.75" y2="423.8047"/><line style="stroke:#A80036;stroke-width:1.0;" x1="548.5" x2="558.5" y1="423.8047" y2="423.8047"/><rect fill="#FFFFFF" filter="url(#f3r537ba1f4sh)" height="64.7031" style="stroke:#FFFFFF;stroke-width:1.0;" width="10" x="548.5" y="623.9141"/><line style="stroke:#A80036;stroke-width:1.0;" x1="548.5" x2="548.5" y1="623.9141" y2="688.6172"/><line style="stroke:#A80036;stroke-width:1.0;" x1="558.5" x2="558.5" y1="623.9141" y2="688.6172"/><line style="stroke:#A80036;stroke-width:1.0;" x1="548.5" x2="558.5" y1="623.9141" y2="623.9141"/><rect fill="#FFFFFF" filter="url(#f3r537ba1f4sh)" height="52.7031" style="stroke:#FFFFFF;stroke-width:1.0;" width="10" x="548.5" y="730.4531"/><line style="stroke:#A80036;stroke-width:1.0;" x1="548.5" x2="548.5" y1="730.4531" y2="783.1563"/><line style="stroke:#A80036;stroke-width:1.0;" x1="558.5" x2="558.5" y1="730.4531" y2="783.1563"/><line style="stroke:#A80036;stroke-width:1.0;" x1="548.5" x2="558.5" y1="783.1563" y2="783.1563"/><rect fill="#FFFFFF" filter="url(#f3r537ba1f4sh)" height="21.1758" style="stroke:#FFFFFF;stroke-width:1.0;" width="10" x="657.5" y="667.4414"/><line style="stroke:#A80036;stroke-width:1.0;" x1="657.5" x2="657.5" y1="667.4414" y2="688.6172"/><line style="stroke:#A80036;stroke-width:1.0;" x1="667.5" x2="667.5" y1="667.4414" y2="688.6172"/><line style="stroke:#A80036;stroke-width:1.0;" x1="657.5" x2="667.5" y1="667.4414" y2="667.4414"/><rect fill="#FFFFFF" filter="url(#f3r537ba1f4sh)" height="60.7031" style="stroke:#FFFFFF;stroke-width:1.0;" width="10" x="657.5" y="730.4531"/><line style="stroke:#A80036;stroke-width:1.0;" x1="657.5" x2="657.5" y1="730.4531" y2="791.1563"/><line style="stroke:#A80036;stroke-width:1.0;" x1="667.5" x2="667.5" y1="730.4531" y2="791.1563"/><rect fill="#FFFFFF" filter="url(#f3r537ba1f4sh)" height="74.0547" style="stroke:#FFFFFF;stroke-width:1.0;" width="10" x="657.5" y="832.9922"/><line style="stroke:#A80036;stroke-width:1.0;" x1="657.5" x2="657.5" y1="832.9922" y2="907.0469"/><line style="stroke:#A80036;stroke-width:1.0;" x1="667.5" x2="667.5" y1="832.9922" y2="907.0469"/><line style="stroke:#A80036;stroke-width:1.0;" x1="657.5" x2="667.5" y1="907.0469" y2="907.0469"/><rect fill="#FFFFFF" filter="url(#f3r537ba1f4sh)" height="139.4063" style="stroke:#A80036;stroke-width:1.0;" width="10" x="799" y="423.8047"/><ellipse cx="7.5" cy="157.8516" rx="4" ry="4" style="stroke:#A80036;stroke-width:1.5;fill:none;"/><polygon fill="#A80036" points="101.5,154.6016,111.5,158.6016,101.5,162.6016,105.5,158.6016" style="stroke:#A80036;stroke-width:1.0;"/><line style="stroke:#A80036;stroke-width:1.0;" x1="12" x2="107.5" y1="158.6016" y2="158.6016"/><text fill="#000000" font-family="sans-serif" font-size="13" lengthAdjust="spacing" textLength="69" x="15" y="153.7451">Scene Start</text><polygon fill="#A80036" points="270,184.9531,280,188.9531,270,192.9531,274,188.9531" style="stroke:#A80036;stroke-width:1.0;"/><line style="stroke:#A80036;stroke-width:1.0;" x1="113.5" x2="276" y1="188.9531" y2="188.9531"/><text fill="#000000" font-family="sans-serif" font-size="13" lengthAdjust="spacing" textLength="78" x="120.5" y="184.0967">Create(Order)</text><rect fill="#FEFECE" filter="url(#f3r537ba1f4sh)" height="31.6094" style="stroke:#A80036;stroke-width:1.5;" width="52" x="282" y="166.6016"/><text fill="#000000" font-family="sans-serif" font-size="14" lengthAdjust="spacing" textLength="38" x="289" y="188.1348">Quest</text><polygon fill="#A80036" points="293,231.5625,303,235.5625,293,239.5625,297,235.5625" style="stroke:#A80036;stroke-width:1.0;"/><line style="stroke:#A80036;stroke-width:1.0;" x1="113.5" x2="299" y1="235.5625" y2="235.5625"/><text fill="#000000" font-family="sans-serif" font-size="13" lengthAdjust="spacing" textLength="60" x="120.5" y="230.7061">InitQuest()</text><line style="stroke:#A80036;stroke-width:1.0;" x1="546.5" x2="536.5" y1="265.9141" y2="261.9141"/><line style="stroke:#A80036;stroke-width:1.0;" x1="546.5" x2="536.5" y1="265.9141" y2="269.9141"/><line style="stroke:#A80036;stroke-width:1.0;" x1="310" x2="547.5" y1="265.9141" y2="265.9141"/><text fill="#000000" font-family="sans-serif" font-size="13" lengthAdjust="spacing" textLength="87" x="317" y="261.0576">Register Quest</text><text fill="#000000" font-family="sans-serif" font-size="11" lengthAdjust="spacing" textLength="99" x="409.25" y="299.333">Rider Moves Around</text><polygon fill="#A80036" points="536.5,339.1016,546.5,343.1016,536.5,347.1016,540.5,343.1016" style="stroke:#A80036;stroke-width:1.0;"/><line style="stroke:#A80036;stroke-width:1.0;" x1="444" x2="542.5" y1="343.1016" y2="343.1016"/><text fill="#000000" font-family="sans-serif" font-size="13" lengthAdjust="spacing" textLength="70" x="451" y="338.2451">TriggerEnter</text><path d="M280,320.75 L280,346.75 L435,346.75 L435,330.75 L425,320.75 L280,320.75 " fill="#FBFB77" filter="url(#f3r537ba1f4sh)" style="stroke:#A80036;stroke-width:1.0;"/><path d="M425,320.75 L425,330.75 L435,330.75 L425,320.75 " fill="#FBFB77" style="stroke:#A80036;stroke-width:1.0;"/><text fill="#000000" font-family="sans-serif" font-size="13" lengthAdjust="spacing" textLength="134" x="286" y="339.2451">may swap trigger caller</text><ellipse cx="902.5" cy="382.7031" rx="4" ry="4" style="stroke:#A80036;stroke-width:1.5;fill:none;"/><polygon fill="#A80036" points="885.5,379.4531,895.5,383.4531,885.5,387.4531,889.5,383.4531" style="stroke:#A80036;stroke-width:1.0;"/><line style="stroke:#A80036;stroke-width:1.0;" x1="558.5" x2="891.5" y1="383.4531" y2="383.4531"/><text fill="#000000" font-family="sans-serif" font-size="13" lengthAdjust="spacing" textLength="106" x="565.5" y="378.5967">Chit Chat and End</text><path d="M397,361.1016 L397,387.1016 L539,387.1016 L539,371.1016 L529,361.1016 L397,361.1016 " fill="#FBFB77" filter="url(#f3r537ba1f4sh)" style="stroke:#A80036;stroke-width:1.0;"/><path d="M529,361.1016 L529,371.1016 L539,371.1016 L529,361.1016 " fill="#FBFB77" style="stroke:#A80036;stroke-width:1.0;"/><text fill="#000000" font-family="sans-serif" font-size="13" lengthAdjust="spacing" textLength="121" x="403" y="379.5967">If no quest registered</text><polygon fill="#A80036" points="787,419.8047,797,423.8047,787,427.8047,791,423.8047" style="stroke:#A80036;stroke-width:1.0;"/><line style="stroke:#A80036;stroke-width:1.0;" x1="553.5" x2="793" y1="423.8047" y2="423.8047"/><text fill="#000000" font-family="sans-serif" font-size="13" lengthAdjust="spacing" textLength="130" x="560.5" y="418.9482">Show Quest UI(Quest)</text><path d="M446,401.4531 L446,427.4531 L539,427.4531 L539,411.4531 L529,401.4531 L446,401.4531 " fill="#FBFB77" filter="url(#f3r537ba1f4sh)" style="stroke:#A80036;stroke-width:1.0;"/><path d="M529,401.4531 L529,411.4531 L539,411.4531 L529,401.4531 " fill="#FBFB77" style="stroke:#A80036;stroke-width:1.0;"/><text fill="#000000" font-family="sans-serif" font-size="13" lengthAdjust="spacing" textLength="72" x="452" y="419.9482">If have quest</text><polygon fill="#A80036" points="326,455.1563,316,459.1563,326,463.1563,322,459.1563" style="stroke:#A80036;stroke-width:1.0;"/><line style="stroke:#A80036;stroke-width:1.0;" x1="320" x2="798" y1="459.1563" y2="459.1563"/><text fill="#000000" font-family="sans-serif" font-size="13" lengthAdjust="spacing" textLength="104" x="332" y="454.2998">Get quest content</text><polygon fill="#A80036" points="787,485.5078,797,489.5078,787,493.5078,791,489.5078" style="stroke:#A80036;stroke-width:1.0;"/><line style="stroke:#A80036;stroke-width:1.0;stroke-dasharray:2.0,2.0;" x1="310" x2="793" y1="489.5078" y2="489.5078"/><text fill="#000000" font-family="sans-serif" font-size="13" lengthAdjust="spacing" textLength="82" x="317" y="484.6514">Quest content</text><line style="stroke:#A80036;stroke-width:1.0;" x1="809" x2="851" y1="519.8594" y2="519.8594"/><line style="stroke:#A80036;stroke-width:1.0;" x1="851" x2="851" y1="519.8594" y2="532.8594"/><line style="stroke:#A80036;stroke-width:1.0;" x1="810" x2="851" y1="532.8594" y2="532.8594"/><polygon fill="#A80036" points="820,528.8594,810,532.8594,820,536.8594,816,532.8594" style="stroke:#A80036;stroke-width:1.0;"/><text fill="#000000" font-family="sans-serif" font-size="13" lengthAdjust="spacing" textLength="83" x="816" y="515.0029">Choose Quest</text><polygon fill="#A80036" points="455,559.2109,445,563.2109,455,567.2109,451,563.2109" style="stroke:#A80036;stroke-width:1.0;"/><line style="stroke:#A80036;stroke-width:1.0;" x1="449" x2="803" y1="563.2109" y2="563.2109"/><text fill="#000000" font-family="sans-serif" font-size="13" lengthAdjust="spacing" textLength="77" x="461" y="558.3545">Accept quest</text><polygon fill="#A80036" points="326,589.5625,316,593.5625,326,597.5625,322,593.5625" style="stroke:#A80036;stroke-width:1.0;"/><line style="stroke:#A80036;stroke-width:1.0;" x1="320" x2="443" y1="593.5625" y2="593.5625"/><text fill="#000000" font-family="sans-serif" font-size="13" lengthAdjust="spacing" textLength="77" x="332" y="588.7061">SetupQuest()</text><line style="stroke:#A80036;stroke-width:1.0;" x1="546.5" x2="536.5" y1="623.9141" y2="619.9141"/><line style="stroke:#A80036;stroke-width:1.0;" x1="546.5" x2="536.5" y1="623.9141" y2="627.9141"/><line style="stroke:#A80036;stroke-width:1.0;" x1="315" x2="547.5" y1="623.9141" y2="623.9141"/><text fill="#000000" font-family="sans-serif" font-size="13" lengthAdjust="spacing" textLength="150" x="322" y="619.0576">Register "Depart Triggers"</text><line style="stroke:#A80036;stroke-width:1.0;" x1="655.5" x2="645.5" y1="667.4414" y2="663.4414"/><line style="stroke:#A80036;stroke-width:1.0;" x1="655.5" x2="645.5" y1="667.4414" y2="671.4414"/><line style="stroke:#A80036;stroke-width:1.0;" x1="310" x2="656.5" y1="667.4414" y2="667.4414"/><text fill="#000000" font-family="sans-serif" font-size="13" lengthAdjust="spacing" textLength="144" x="317" y="662.585">Register "Arrive Triggers"</text><path d="M672,636.9141 L672,678.9141 L838,678.9141 L838,646.9141 L828,636.9141 L672,636.9141 " fill="#FBFB77" filter="url(#f3r537ba1f4sh)" style="stroke:#A80036;stroke-width:1.0;"/><path d="M828,636.9141 L828,646.9141 L838,646.9141 L828,636.9141 " fill="#FBFB77" style="stroke:#A80036;stroke-width:1.0;"/><text fill="#000000" font-family="sans-serif" font-size="13" lengthAdjust="spacing" textLength="141" x="678" y="655.4092">Replaces chat behaviour</text><text fill="#000000" font-family="sans-serif" font-size="13" lengthAdjust="spacing" textLength="121" x="682" y="671.7607">until quest is aborted</text><text fill="#000000" font-family="sans-serif" font-size="11" lengthAdjust="spacing" textLength="66" x="425.75" y="714.0361">Wait for Rider</text><polygon fill="#A80036" points="536.5,748.8047,546.5,752.8047,536.5,756.8047,540.5,752.8047" style="stroke:#A80036;stroke-width:1.0;"/><line style="stroke:#A80036;stroke-width:1.0;" x1="444" x2="542.5" y1="752.8047" y2="752.8047"/><text fill="#000000" font-family="sans-serif" font-size="13" lengthAdjust="spacing" textLength="72" x="451" y="747.9482">TriggerLeave</text><polygon fill="#A80036" points="321,779.1563,311,783.1563,321,787.1563,317,783.1563" style="stroke:#A80036;stroke-width:1.0;"/><line style="stroke:#A80036;stroke-width:1.0;" x1="315" x2="552.5" y1="783.1563" y2="783.1563"/><text fill="#000000" font-family="sans-serif" font-size="13" lengthAdjust="spacing" textLength="67" x="327" y="778.2998">Start Quest</text><text fill="#000000" font-family="sans-serif" font-size="11" lengthAdjust="spacing" textLength="111" x="403.25" y="816.5752">Rider Delivers Package</text><polygon fill="#A80036" points="645.5,851.3438,655.5,855.3438,645.5,859.3438,649.5,855.3438" style="stroke:#A80036;stroke-width:1.0;"/><line style="stroke:#A80036;stroke-width:1.0;" x1="444" x2="651.5" y1="855.3438" y2="855.3438"/><text fill="#000000" font-family="sans-serif" font-size="13" lengthAdjust="spacing" textLength="70" x="451" y="850.4873">TriggerEnter</text><polygon fill="#A80036" points="326,903.0469,316,907.0469,326,911.0469,322,907.0469" style="stroke:#A80036;stroke-width:1.0;"/><line style="stroke:#A80036;stroke-width:1.0;" x1="320" x2="661.5" y1="907.0469" y2="907.0469"/><text fill="#000000" font-family="sans-serif" font-size="13" lengthAdjust="spacing" textLength="100" x="332" y="902.1904">TearDownQuest()</text><path d="M672,868.3438 L672,927.3438 L832,927.3438 L832,878.3438 L822,868.3438 L672,868.3438 " fill="#FBFB77" filter="url(#f3r537ba1f4sh)" style="stroke:#A80036;stroke-width:1.0;"/><path d="M822,868.3438 L822,878.3438 L832,878.3438 L822,868.3438 " fill="#FBFB77" style="stroke:#A80036;stroke-width:1.0;"/><text fill="#000000" font-family="sans-serif" font-size="13" lengthAdjust="spacing" textLength="135" x="678" y="886.8389">In quest mode because</text><text fill="#000000" font-family="sans-serif" font-size="13" lengthAdjust="spacing" textLength="106" x="682" y="903.1904">it is a toNPC of an</text><text fill="#000000" font-family="sans-serif" font-size="13" lengthAdjust="spacing" textLength="81" x="682" y="919.542">ongoing quest</text><ellipse cx="902.5" cy="958" rx="4" ry="4" style="stroke:#A80036;stroke-width:1.5;fill:none;"/><polygon fill="#A80036" points="885.5,954.75,895.5,958.75,885.5,962.75,889.5,958.75" style="stroke:#A80036;stroke-width:1.0;"/><line style="stroke:#A80036;stroke-width:1.0;" x1="310" x2="891.5" y1="958.75" y2="958.75"/><text fill="#000000" font-family="sans-serif" font-size="13" lengthAdjust="spacing" textLength="23" x="317" y="953.8936">End</text><!--MD5=[5f7db772c511db0b36ac818c205f89b2]
@startuml Quest2

title Quest 2 Design

' skinparam sequenceMessageAlign direction
skinparam ParticipantPadding 50
' skinparam BoxPadding 10

' autonumber 1.1.1

participant "Director / Editor" as Director
participant Quest               as Quest
actor "Player : Rider"                     as Rider
entity "FromNPC : NPC"               as FromNpc
entity "ToNPC : NPC"                 as ToNpc
participant "Quest UI"          as QuestUi

[o-> Director                       : Scene Start
Director -> Quest                ** : Create(Order)
Director -> Quest                ++ : InitQuest()
Quest ->> FromNpc              - -++ : Register Quest

... Rider Moves Around ...

Rider -> FromNpc                    : TriggerEnter
note left                           : may swap trigger caller
FromNpc ->o]                        : Chit Chat and End
note left                           : If no quest registered
FromNpc -> QuestUi             - -++ : Show Quest UI(Quest)
note left                           : If have quest
QuestUi -> Quest                 ++ : Get quest content
QuestUi <- - Quest                - - : Quest content
QuestUi -> QuestUi                  : Choose Quest
QuestUi -> Rider                 - - : Accept quest
Rider -> Quest                   ++ : SetupQuest()
Quest ->> FromNpc                ++ : Register "Depart Triggers"
Quest ->> ToNpc                - -++ : Register "Arrive Triggers"
note right                          : Replaces chat behaviour \n until quest is aborted

... Wait for Rider ...

Rider -> FromNpc                    : TriggerLeave
FromNpc -> Quest                 - - : Start Quest

... Rider Delivers Package ...

Rider -> ToNpc                      : TriggerEnter
ToNpc -> Quest                 - -++ : TearDownQuest()
note right                          : In quest mode because \n it is a toNPC of an \n ongoing quest
Quest ->o]                      - -  : End
...





@enduml

@startuml Quest2

title Quest 2 Design

skinparam ParticipantPadding 50


participant "Director / Editor" as Director
participant Quest               as Quest
actor "Player : Rider"                     as Rider
entity "FromNPC : NPC"               as FromNpc
entity "ToNPC : NPC"                 as ToNpc
participant "Quest UI"          as QuestUi

[o-> Director                       : Scene Start
Director -> Quest                ** : Create(Order)
Director -> Quest                ++ : InitQuest()
Quest ->> FromNpc              - -++ : Register Quest

... Rider Moves Around ...

Rider -> FromNpc                    : TriggerEnter
note left                           : may swap trigger caller
FromNpc ->o]                        : Chit Chat and End
note left                           : If no quest registered
FromNpc -> QuestUi             - -++ : Show Quest UI(Quest)
note left                           : If have quest
QuestUi -> Quest                 ++ : Get quest content
QuestUi <- - Quest                - - : Quest content
QuestUi -> QuestUi                  : Choose Quest
QuestUi -> Rider                 - - : Accept quest
Rider -> Quest                   ++ : SetupQuest()
Quest ->> FromNpc                ++ : Register "Depart Triggers"
Quest ->> ToNpc                - -++ : Register "Arrive Triggers"
note right                          : Replaces chat behaviour \n until quest is aborted

... Wait for Rider ...

Rider -> FromNpc                    : TriggerLeave
FromNpc -> Quest                 - - : Start Quest

... Rider Delivers Package ...

Rider -> ToNpc                      : TriggerEnter
ToNpc -> Quest                 - -++ : TearDownQuest()
note right                          : In quest mode because \n it is a toNPC of an \n ongoing quest
Quest ->o]                      - -  : End
...





@enduml

PlantUML version 1.2021.16(Thu Dec 09 01:25:22 GMT+08:00 2021)
(GPL source distribution)
Java Runtime: Java(TM) SE Runtime Environment
JVM: Java HotSpot(TM) 64-Bit Server VM
Default Encoding: Cp1252
Language: en
Country: HK
--></g></svg>