<?xml version="1.0" encoding="UTF-8" standalone="no"?><svg xmlns="http://www.w3.org/2000/svg" xmlns:xlink="http://www.w3.org/1999/xlink" contentScriptType="application/ecmascript" contentStyleType="text/css" height="920px" preserveAspectRatio="none" style="width:746px;height:920px;background:#FFFFFF;" version="1.1" viewBox="0 0 746 920" width="746px" zoomAndPan="magnify"><defs><filter height="300%" id="fuyrnn5lay2ea" width="300%" x="-1" y="-1"><feGaussianBlur result="blurOut" stdDeviation="2.0"/><feColorMatrix in="blurOut" result="blurOut2" type="matrix" values="0 0 0 0 0 0 0 0 0 0 0 0 0 0 0 0 0 0 .4 0"/><feOffset dx="4.0" dy="4.0" in="blurOut2" result="blurOut3"/><feBlend in="SourceGraphic" in2="blurOut3" mode="normal"/></filter></defs><g><text fill="#000000" font-family="sans-serif" font-size="18" lengthAdjust="spacing" textLength="124" x="311.25" y="30.6855">Quest 2 Design</text><rect fill="#FFFFFF" filter="url(#fuyrnn5lay2ea)" height="8" style="stroke:#FFFFFF;stroke-width:1.0;" width="10" x="445" y="296.2656"/><line style="stroke:#A80036;stroke-width:1.0;" x1="445" x2="445" y1="296.2656" y2="304.2656"/><line style="stroke:#A80036;stroke-width:1.0;" x1="455" x2="455" y1="296.2656" y2="304.2656"/><line style="stroke:#A80036;stroke-width:1.0;" x1="445" x2="455" y1="296.2656" y2="296.2656"/><rect fill="#FFFFFF" filter="url(#fuyrnn5lay2ea)" height="62.7031" style="stroke:#FFFFFF;stroke-width:1.0;" width="10" x="445" y="346.1016"/><line style="stroke:#A80036;stroke-width:1.0;" x1="445" x2="445" y1="346.1016" y2="408.8047"/><line style="stroke:#A80036;stroke-width:1.0;" x1="455" x2="455" y1="346.1016" y2="408.8047"/><line style="stroke:#A80036;stroke-width:1.0;" x1="445" x2="455" y1="408.8047" y2="408.8047"/><rect fill="#FFFFFF" filter="url(#fuyrnn5lay2ea)" height="38.3516" style="stroke:#FFFFFF;stroke-width:1.0;" width="10" x="445" y="543.2109"/><line style="stroke:#A80036;stroke-width:1.0;" x1="445" x2="445" y1="543.2109" y2="581.5625"/><line style="stroke:#A80036;stroke-width:1.0;" x1="455" x2="455" y1="543.2109" y2="581.5625"/><line style="stroke:#A80036;stroke-width:1.0;" x1="445" x2="455" y1="543.2109" y2="543.2109"/><rect fill="#FFFFFF" filter="url(#fuyrnn5lay2ea)" height="52.7031" style="stroke:#FFFFFF;stroke-width:1.0;" width="10" x="445" y="623.3984"/><line style="stroke:#A80036;stroke-width:1.0;" x1="445" x2="445" y1="623.3984" y2="676.1016"/><line style="stroke:#A80036;stroke-width:1.0;" x1="455" x2="455" y1="623.3984" y2="676.1016"/><line style="stroke:#A80036;stroke-width:1.0;" x1="445" x2="455" y1="676.1016" y2="676.1016"/><rect fill="#FFFFFF" filter="url(#fuyrnn5lay2ea)" height="8" style="stroke:#FFFFFF;stroke-width:1.0;" width="10" x="518" y="573.5625"/><line style="stroke:#A80036;stroke-width:1.0;" x1="518" x2="518" y1="573.5625" y2="581.5625"/><line style="stroke:#A80036;stroke-width:1.0;" x1="528" x2="528" y1="573.5625" y2="581.5625"/><line style="stroke:#A80036;stroke-width:1.0;" x1="518" x2="528" y1="573.5625" y2="573.5625"/><rect fill="#FFFFFF" filter="url(#fuyrnn5lay2ea)" height="60.7031" style="stroke:#FFFFFF;stroke-width:1.0;" width="10" x="518" y="623.3984"/><line style="stroke:#A80036;stroke-width:1.0;" x1="518" x2="518" y1="623.3984" y2="684.1016"/><line style="stroke:#A80036;stroke-width:1.0;" x1="528" x2="528" y1="623.3984" y2="684.1016"/><rect fill="#FFFFFF" filter="url(#fuyrnn5lay2ea)" height="57.7031" style="stroke:#FFFFFF;stroke-width:1.0;" width="10" x="518" y="725.9375"/><line style="stroke:#A80036;stroke-width:1.0;" x1="518" x2="518" y1="725.9375" y2="783.6406"/><line style="stroke:#A80036;stroke-width:1.0;" x1="528" x2="528" y1="725.9375" y2="783.6406"/><line style="stroke:#A80036;stroke-width:1.0;" x1="518" x2="528" y1="783.6406" y2="783.6406"/><rect fill="#FFFFFF" filter="url(#fuyrnn5lay2ea)" height="73.7031" style="stroke:#A80036;stroke-width:1.0;" width="10" x="619.5" y="408.8047"/><rect fill="#FFFFFF" filter="url(#fuyrnn5lay2ea)" height="30.3516" style="stroke:#A80036;stroke-width:1.0;" width="10" x="715" y="235.5625"/><line style="stroke:#A80036;stroke-width:1.0;" x1="100.5" x2="100.5" y1="126.25" y2="304.2656"/><line style="stroke:#A80036;stroke-width:1.0;stroke-dasharray:1.0,4.0;" x1="100.5" x2="100.5" y1="304.2656" y2="346.1016"/><line style="stroke:#A80036;stroke-width:1.0;" x1="100.5" x2="100.5" y1="346.1016" y2="581.5625"/><line style="stroke:#A80036;stroke-width:1.0;stroke-dasharray:1.0,4.0;" x1="100.5" x2="100.5" y1="581.5625" y2="623.3984"/><line style="stroke:#A80036;stroke-width:1.0;" x1="100.5" x2="100.5" y1="623.3984" y2="684.1016"/><line style="stroke:#A80036;stroke-width:1.0;stroke-dasharray:1.0,4.0;" x1="100.5" x2="100.5" y1="684.1016" y2="725.9375"/><line style="stroke:#A80036;stroke-width:1.0;" x1="100.5" x2="100.5" y1="725.9375" y2="796.6406"/><line style="stroke:#A80036;stroke-width:1.0;stroke-dasharray:1.0,4.0;" x1="100.5" x2="100.5" y1="796.6406" y2="824.6406"/><line style="stroke:#A80036;stroke-width:1.0;" x1="100.5" x2="100.5" y1="824.6406" y2="834.6406"/><line style="stroke:#A80036;stroke-width:1.0;" x1="261" x2="261" y1="199.9063" y2="304.2656"/><line style="stroke:#A80036;stroke-width:1.0;stroke-dasharray:1.0,4.0;" x1="261" x2="261" y1="304.2656" y2="346.1016"/><line style="stroke:#A80036;stroke-width:1.0;" x1="261" x2="261" y1="346.1016" y2="581.5625"/><line style="stroke:#A80036;stroke-width:1.0;stroke-dasharray:1.0,4.0;" x1="261" x2="261" y1="581.5625" y2="623.3984"/><line style="stroke:#A80036;stroke-width:1.0;" x1="261" x2="261" y1="623.3984" y2="684.1016"/><line style="stroke:#A80036;stroke-width:1.0;stroke-dasharray:1.0,4.0;" x1="261" x2="261" y1="684.1016" y2="725.9375"/><line style="stroke:#A80036;stroke-width:1.0;" x1="261" x2="261" y1="725.9375" y2="796.6406"/><line style="stroke:#A80036;stroke-width:1.0;stroke-dasharray:1.0,4.0;" x1="261" x2="261" y1="796.6406" y2="824.6406"/><line style="stroke:#A80036;stroke-width:1.0;" x1="261" x2="261" y1="824.6406" y2="834.6406"/><line style="stroke:#A80036;stroke-width:1.0;" x1="349" x2="349" y1="126.25" y2="304.2656"/><line style="stroke:#A80036;stroke-width:1.0;stroke-dasharray:1.0,4.0;" x1="349" x2="349" y1="304.2656" y2="346.1016"/><line style="stroke:#A80036;stroke-width:1.0;" x1="349" x2="349" y1="346.1016" y2="581.5625"/><line style="stroke:#A80036;stroke-width:1.0;stroke-dasharray:1.0,4.0;" x1="349" x2="349" y1="581.5625" y2="623.3984"/><line style="stroke:#A80036;stroke-width:1.0;" x1="349" x2="349" y1="623.3984" y2="684.1016"/><line style="stroke:#A80036;stroke-width:1.0;stroke-dasharray:1.0,4.0;" x1="349" x2="349" y1="684.1016" y2="725.9375"/><line style="stroke:#A80036;stroke-width:1.0;" x1="349" x2="349" y1="725.9375" y2="796.6406"/><line style="stroke:#A80036;stroke-width:1.0;stroke-dasharray:1.0,4.0;" x1="349" x2="349" y1="796.6406" y2="824.6406"/><line style="stroke:#A80036;stroke-width:1.0;" x1="349" x2="349" y1="824.6406" y2="834.6406"/><line style="stroke:#A80036;stroke-width:1.0;" x1="449.5" x2="449.5" y1="126.25" y2="304.2656"/><line style="stroke:#A80036;stroke-width:1.0;stroke-dasharray:1.0,4.0;" x1="449.5" x2="449.5" y1="304.2656" y2="346.1016"/><line style="stroke:#A80036;stroke-width:1.0;" x1="449.5" x2="449.5" y1="346.1016" y2="581.5625"/><line style="stroke:#A80036;stroke-width:1.0;stroke-dasharray:1.0,4.0;" x1="449.5" x2="449.5" y1="581.5625" y2="623.3984"/><line style="stroke:#A80036;stroke-width:1.0;" x1="449.5" x2="449.5" y1="623.3984" y2="684.1016"/><line style="stroke:#A80036;stroke-width:1.0;stroke-dasharray:1.0,4.0;" x1="449.5" x2="449.5" y1="684.1016" y2="725.9375"/><line style="stroke:#A80036;stroke-width:1.0;" x1="449.5" x2="449.5" y1="725.9375" y2="796.6406"/><line style="stroke:#A80036;stroke-width:1.0;stroke-dasharray:1.0,4.0;" x1="449.5" x2="449.5" y1="796.6406" y2="824.6406"/><line style="stroke:#A80036;stroke-width:1.0;" x1="449.5" x2="449.5" y1="824.6406" y2="834.6406"/><line style="stroke:#A80036;stroke-width:1.0;" x1="522.5" x2="522.5" y1="126.25" y2="304.2656"/><line style="stroke:#A80036;stroke-width:1.0;stroke-dasharray:1.0,4.0;" x1="522.5" x2="522.5" y1="304.2656" y2="346.1016"/><line style="stroke:#A80036;stroke-width:1.0;" x1="522.5" x2="522.5" y1="346.1016" y2="581.5625"/><line style="stroke:#A80036;stroke-width:1.0;stroke-dasharray:1.0,4.0;" x1="522.5" x2="522.5" y1="581.5625" y2="623.3984"/><line style="stroke:#A80036;stroke-width:1.0;" x1="522.5" x2="522.5" y1="623.3984" y2="684.1016"/><line style="stroke:#A80036;stroke-width:1.0;stroke-dasharray:1.0,4.0;" x1="522.5" x2="522.5" y1="684.1016" y2="725.9375"/><line style="stroke:#A80036;stroke-width:1.0;" x1="522.5" x2="522.5" y1="725.9375" y2="796.6406"/><line style="stroke:#A80036;stroke-width:1.0;stroke-dasharray:1.0,4.0;" x1="522.5" x2="522.5" y1="796.6406" y2="824.6406"/><line style="stroke:#A80036;stroke-width:1.0;" x1="522.5" x2="522.5" y1="824.6406" y2="834.6406"/><line style="stroke:#A80036;stroke-width:1.0;" x1="624.5" x2="624.5" y1="126.25" y2="304.2656"/><line style="stroke:#A80036;stroke-width:1.0;stroke-dasharray:1.0,4.0;" x1="624.5" x2="624.5" y1="304.2656" y2="346.1016"/><line style="stroke:#A80036;stroke-width:1.0;" x1="624.5" x2="624.5" y1="346.1016" y2="581.5625"/><line style="stroke:#A80036;stroke-width:1.0;stroke-dasharray:1.0,4.0;" x1="624.5" x2="624.5" y1="581.5625" y2="623.3984"/><line style="stroke:#A80036;stroke-width:1.0;" x1="624.5" x2="624.5" y1="623.3984" y2="684.1016"/><line style="stroke:#A80036;stroke-width:1.0;stroke-dasharray:1.0,4.0;" x1="624.5" x2="624.5" y1="684.1016" y2="725.9375"/><line style="stroke:#A80036;stroke-width:1.0;" x1="624.5" x2="624.5" y1="725.9375" y2="796.6406"/><line style="stroke:#A80036;stroke-width:1.0;stroke-dasharray:1.0,4.0;" x1="624.5" x2="624.5" y1="796.6406" y2="824.6406"/><line style="stroke:#A80036;stroke-width:1.0;" x1="624.5" x2="624.5" y1="824.6406" y2="834.6406"/><line style="stroke:#A80036;stroke-width:1.0;" x1="719.5" x2="719.5" y1="126.25" y2="304.2656"/><line style="stroke:#A80036;stroke-width:1.0;stroke-dasharray:1.0,4.0;" x1="719.5" x2="719.5" y1="304.2656" y2="346.1016"/><line style="stroke:#A80036;stroke-width:1.0;" x1="719.5" x2="719.5" y1="346.1016" y2="581.5625"/><line style="stroke:#A80036;stroke-width:1.0;stroke-dasharray:1.0,4.0;" x1="719.5" x2="719.5" y1="581.5625" y2="623.3984"/><line style="stroke:#A80036;stroke-width:1.0;" x1="719.5" x2="719.5" y1="623.3984" y2="684.1016"/><line style="stroke:#A80036;stroke-width:1.0;stroke-dasharray:1.0,4.0;" x1="719.5" x2="719.5" y1="684.1016" y2="725.9375"/><line style="stroke:#A80036;stroke-width:1.0;" x1="719.5" x2="719.5" y1="725.9375" y2="796.6406"/><line style="stroke:#A80036;stroke-width:1.0;stroke-dasharray:1.0,4.0;" x1="719.5" x2="719.5" y1="796.6406" y2="824.6406"/><line style="stroke:#A80036;stroke-width:1.0;" x1="719.5" x2="719.5" y1="824.6406" y2="834.6406"/><rect fill="#FEFECE" filter="url(#fuyrnn5lay2ea)" height="31.6094" style="stroke:#A80036;stroke-width:1.5;" width="113" x="42.5" y="89.6406"/><text fill="#000000" font-family="sans-serif" font-size="14" lengthAdjust="spacing" textLength="99" x="49.5" y="111.1738">Director / Editor</text><rect fill="#FEFECE" filter="url(#fuyrnn5lay2ea)" height="31.6094" style="stroke:#A80036;stroke-width:1.5;" width="113" x="42.5" y="833.6406"/><text fill="#000000" font-family="sans-serif" font-size="14" lengthAdjust="spacing" textLength="99" x="49.5" y="855.1738">Director / Editor</text><rect fill="#FEFECE" filter="url(#fuyrnn5lay2ea)" height="31.6094" style="stroke:#A80036;stroke-width:1.5;" width="52" x="233" y="833.6406"/><text fill="#000000" font-family="sans-serif" font-size="14" lengthAdjust="spacing" textLength="38" x="240" y="855.1738">Quest</text><text fill="#000000" font-family="sans-serif" font-size="14" lengthAdjust="spacing" textLength="34" x="329" y="123.1738">Rider</text><ellipse cx="349" cy="51.6406" fill="#FEFECE" filter="url(#fuyrnn5lay2ea)" rx="8" ry="8" style="stroke:#A80036;stroke-width:2.0;"/><path d="M349,59.6406 L349,86.6406 M336,67.6406 L362,67.6406 M349,86.6406 L336,101.6406 M349,86.6406 L362,101.6406 " fill="none" filter="url(#fuyrnn5lay2ea)" style="stroke:#A80036;stroke-width:2.0;"/><text fill="#000000" font-family="sans-serif" font-size="14" lengthAdjust="spacing" textLength="34" x="329" y="848.1738">Rider</text><ellipse cx="349" cy="861.25" fill="#FEFECE" filter="url(#fuyrnn5lay2ea)" rx="8" ry="8" style="stroke:#A80036;stroke-width:2.0;"/><path d="M349,869.25 L349,896.25 M336,877.25 L362,877.25 M349,896.25 L336,911.25 M349,896.25 L362,911.25 " fill="none" filter="url(#fuyrnn5lay2ea)" style="stroke:#A80036;stroke-width:2.0;"/><text fill="#000000" font-family="sans-serif" font-size="14" lengthAdjust="spacing" textLength="65" x="414.5" y="123.1738">NPC From</text><ellipse cx="450" cy="92.6406" fill="#FEFECE" filter="url(#fuyrnn5lay2ea)" rx="12" ry="12" style="stroke:#A80036;stroke-width:2.0;"/><line style="stroke:#A80036;stroke-width:2.0;" x1="438" x2="462" y1="106.6406" y2="106.6406"/><text fill="#000000" font-family="sans-serif" font-size="14" lengthAdjust="spacing" textLength="65" x="414.5" y="848.1738">NPC From</text><ellipse cx="450" cy="867.25" fill="#FEFECE" filter="url(#fuyrnn5lay2ea)" rx="12" ry="12" style="stroke:#A80036;stroke-width:2.0;"/><line style="stroke:#A80036;stroke-width:2.0;" x1="438" x2="462" y1="881.25" y2="881.25"/><text fill="#000000" font-family="sans-serif" font-size="14" lengthAdjust="spacing" textLength="49" x="495.5" y="123.1738">NPC To</text><ellipse cx="523" cy="92.6406" fill="#FEFECE" filter="url(#fuyrnn5lay2ea)" rx="12" ry="12" style="stroke:#A80036;stroke-width:2.0;"/><line style="stroke:#A80036;stroke-width:2.0;" x1="511" x2="535" y1="106.6406" y2="106.6406"/><text fill="#000000" font-family="sans-serif" font-size="14" lengthAdjust="spacing" textLength="49" x="495.5" y="848.1738">NPC To</text><ellipse cx="523" cy="867.25" fill="#FEFECE" filter="url(#fuyrnn5lay2ea)" rx="12" ry="12" style="stroke:#A80036;stroke-width:2.0;"/><line style="stroke:#A80036;stroke-width:2.0;" x1="511" x2="535" y1="881.25" y2="881.25"/><rect fill="#FEFECE" filter="url(#fuyrnn5lay2ea)" height="31.6094" style="stroke:#A80036;stroke-width:1.5;" width="64" x="590.5" y="89.6406"/><text fill="#000000" font-family="sans-serif" font-size="14" lengthAdjust="spacing" textLength="50" x="597.5" y="111.1738">QuestUi</text><rect fill="#FEFECE" filter="url(#fuyrnn5lay2ea)" height="31.6094" style="stroke:#A80036;stroke-width:1.5;" width="64" x="590.5" y="833.6406"/><text fill="#000000" font-family="sans-serif" font-size="14" lengthAdjust="spacing" textLength="50" x="597.5" y="855.1738">QuestUi</text><text fill="#000000" font-family="sans-serif" font-size="14" lengthAdjust="spacing" textLength="37" x="698.5" y="123.1738">Order</text><ellipse cx="720" cy="92.6406" fill="#FEFECE" filter="url(#fuyrnn5lay2ea)" rx="12" ry="12" style="stroke:#A80036;stroke-width:2.0;"/><line style="stroke:#A80036;stroke-width:2.0;" x1="708" x2="732" y1="106.6406" y2="106.6406"/><text fill="#000000" font-family="sans-serif" font-size="14" lengthAdjust="spacing" textLength="37" x="698.5" y="848.1738">Order</text><ellipse cx="720" cy="867.25" fill="#FEFECE" filter="url(#fuyrnn5lay2ea)" rx="12" ry="12" style="stroke:#A80036;stroke-width:2.0;"/><line style="stroke:#A80036;stroke-width:2.0;" x1="708" x2="732" y1="881.25" y2="881.25"/><rect fill="#FFFFFF" filter="url(#fuyrnn5lay2ea)" height="8" style="stroke:#FFFFFF;stroke-width:1.0;" width="10" x="445" y="296.2656"/><line style="stroke:#A80036;stroke-width:1.0;" x1="445" x2="445" y1="296.2656" y2="304.2656"/><line style="stroke:#A80036;stroke-width:1.0;" x1="455" x2="455" y1="296.2656" y2="304.2656"/><line style="stroke:#A80036;stroke-width:1.0;" x1="445" x2="455" y1="296.2656" y2="296.2656"/><rect fill="#FFFFFF" filter="url(#fuyrnn5lay2ea)" height="62.7031" style="stroke:#FFFFFF;stroke-width:1.0;" width="10" x="445" y="346.1016"/><line style="stroke:#A80036;stroke-width:1.0;" x1="445" x2="445" y1="346.1016" y2="408.8047"/><line style="stroke:#A80036;stroke-width:1.0;" x1="455" x2="455" y1="346.1016" y2="408.8047"/><line style="stroke:#A80036;stroke-width:1.0;" x1="445" x2="455" y1="408.8047" y2="408.8047"/><rect fill="#FFFFFF" filter="url(#fuyrnn5lay2ea)" height="38.3516" style="stroke:#FFFFFF;stroke-width:1.0;" width="10" x="445" y="543.2109"/><line style="stroke:#A80036;stroke-width:1.0;" x1="445" x2="445" y1="543.2109" y2="581.5625"/><line style="stroke:#A80036;stroke-width:1.0;" x1="455" x2="455" y1="543.2109" y2="581.5625"/><line style="stroke:#A80036;stroke-width:1.0;" x1="445" x2="455" y1="543.2109" y2="543.2109"/><rect fill="#FFFFFF" filter="url(#fuyrnn5lay2ea)" height="52.7031" style="stroke:#FFFFFF;stroke-width:1.0;" width="10" x="445" y="623.3984"/><line style="stroke:#A80036;stroke-width:1.0;" x1="445" x2="445" y1="623.3984" y2="676.1016"/><line style="stroke:#A80036;stroke-width:1.0;" x1="455" x2="455" y1="623.3984" y2="676.1016"/><line style="stroke:#A80036;stroke-width:1.0;" x1="445" x2="455" y1="676.1016" y2="676.1016"/><rect fill="#FFFFFF" filter="url(#fuyrnn5lay2ea)" height="8" style="stroke:#FFFFFF;stroke-width:1.0;" width="10" x="518" y="573.5625"/><line style="stroke:#A80036;stroke-width:1.0;" x1="518" x2="518" y1="573.5625" y2="581.5625"/><line style="stroke:#A80036;stroke-width:1.0;" x1="528" x2="528" y1="573.5625" y2="581.5625"/><line style="stroke:#A80036;stroke-width:1.0;" x1="518" x2="528" y1="573.5625" y2="573.5625"/><rect fill="#FFFFFF" filter="url(#fuyrnn5lay2ea)" height="60.7031" style="stroke:#FFFFFF;stroke-width:1.0;" width="10" x="518" y="623.3984"/><line style="stroke:#A80036;stroke-width:1.0;" x1="518" x2="518" y1="623.3984" y2="684.1016"/><line style="stroke:#A80036;stroke-width:1.0;" x1="528" x2="528" y1="623.3984" y2="684.1016"/><rect fill="#FFFFFF" filter="url(#fuyrnn5lay2ea)" height="57.7031" style="stroke:#FFFFFF;stroke-width:1.0;" width="10" x="518" y="725.9375"/><line style="stroke:#A80036;stroke-width:1.0;" x1="518" x2="518" y1="725.9375" y2="783.6406"/><line style="stroke:#A80036;stroke-width:1.0;" x1="528" x2="528" y1="725.9375" y2="783.6406"/><line style="stroke:#A80036;stroke-width:1.0;" x1="518" x2="528" y1="783.6406" y2="783.6406"/><rect fill="#FFFFFF" filter="url(#fuyrnn5lay2ea)" height="73.7031" style="stroke:#A80036;stroke-width:1.0;" width="10" x="619.5" y="408.8047"/><rect fill="#FFFFFF" filter="url(#fuyrnn5lay2ea)" height="30.3516" style="stroke:#A80036;stroke-width:1.0;" width="10" x="715" y="235.5625"/><ellipse cx="7.5" cy="157.8516" rx="4" ry="4" style="stroke:#A80036;stroke-width:1.5;fill:none;"/><polygon fill="#A80036" points="89,154.6016,99,158.6016,89,162.6016,93,158.6016" style="stroke:#A80036;stroke-width:1.0;"/><line style="stroke:#A80036;stroke-width:1.0;" x1="12" x2="95" y1="158.6016" y2="158.6016"/><text fill="#000000" font-family="sans-serif" font-size="13" lengthAdjust="spacing" textLength="69" x="15" y="153.7451">Scene Start</text><polygon fill="#A80036" points="221,184.9531,231,188.9531,221,192.9531,225,188.9531" style="stroke:#A80036;stroke-width:1.0;"/><line style="stroke:#A80036;stroke-width:1.0;" x1="101" x2="227" y1="188.9531" y2="188.9531"/><text fill="#000000" font-family="sans-serif" font-size="13" lengthAdjust="spacing" textLength="78" x="108" y="184.0967">Create(Order)</text><rect fill="#FEFECE" filter="url(#fuyrnn5lay2ea)" height="31.6094" style="stroke:#A80036;stroke-width:1.5;" width="52" x="233" y="166.6016"/><text fill="#000000" font-family="sans-serif" font-size="14" lengthAdjust="spacing" textLength="38" x="240" y="188.1348">Quest</text><polygon fill="#A80036" points="703,231.5625,713,235.5625,703,239.5625,707,235.5625" style="stroke:#A80036;stroke-width:1.0;"/><line style="stroke:#A80036;stroke-width:1.0;" x1="261" x2="709" y1="235.5625" y2="235.5625"/><text fill="#000000" font-family="sans-serif" font-size="13" lengthAdjust="spacing" textLength="91" x="268" y="230.7061">Read FromNPC</text><polygon fill="#A80036" points="272,261.9141,262,265.9141,272,269.9141,268,265.9141" style="stroke:#A80036;stroke-width:1.0;"/><line style="stroke:#A80036;stroke-width:1.0;stroke-dasharray:2.0,2.0;" x1="266" x2="719" y1="265.9141" y2="265.9141"/><text fill="#000000" font-family="sans-serif" font-size="13" lengthAdjust="spacing" textLength="57" x="278" y="261.0576">FromNPC</text><line style="stroke:#A80036;stroke-width:1.0;" x1="443" x2="433" y1="296.2656" y2="292.2656"/><line style="stroke:#A80036;stroke-width:1.0;" x1="443" x2="433" y1="296.2656" y2="300.2656"/><line style="stroke:#A80036;stroke-width:1.0;" x1="261" x2="444" y1="296.2656" y2="296.2656"/><text fill="#000000" font-family="sans-serif" font-size="13" lengthAdjust="spacing" textLength="159" x="268" y="291.4092">Register FromNPC Triggers</text><text fill="#000000" font-family="sans-serif" font-size="11" lengthAdjust="spacing" textLength="99" x="361" y="329.6846">Rider Moves Around</text><polygon fill="#A80036" points="433,369.4531,443,373.4531,433,377.4531,437,373.4531" style="stroke:#A80036;stroke-width:1.0;"/><line style="stroke:#A80036;stroke-width:1.0;" x1="349" x2="439" y1="373.4531" y2="373.4531"/><text fill="#000000" font-family="sans-serif" font-size="13" lengthAdjust="spacing" textLength="70" x="356" y="368.5967">TriggerEnter</text><path d="M185,351.1016 L185,377.1016 L340,377.1016 L340,361.1016 L330,351.1016 L185,351.1016 " fill="#FBFB77" filter="url(#fuyrnn5lay2ea)" style="stroke:#A80036;stroke-width:1.0;"/><path d="M330,351.1016 L330,361.1016 L340,361.1016 L330,351.1016 " fill="#FBFB77" style="stroke:#A80036;stroke-width:1.0;"/><text fill="#000000" font-family="sans-serif" font-size="13" lengthAdjust="spacing" textLength="134" x="191" y="369.5967">may swap trigger caller</text><polygon fill="#A80036" points="607.5,404.8047,617.5,408.8047,607.5,412.8047,611.5,408.8047" style="stroke:#A80036;stroke-width:1.0;"/><line style="stroke:#A80036;stroke-width:1.0;" x1="450" x2="613.5" y1="408.8047" y2="408.8047"/><text fill="#000000" font-family="sans-serif" font-size="13" lengthAdjust="spacing" textLength="130" x="457" y="403.9482">Show Quest UI(Quest)</text><line style="stroke:#A80036;stroke-width:1.0;" x1="629.5" x2="671.5" y1="439.1563" y2="439.1563"/><line style="stroke:#A80036;stroke-width:1.0;" x1="671.5" x2="671.5" y1="439.1563" y2="452.1563"/><line style="stroke:#A80036;stroke-width:1.0;" x1="630.5" x2="671.5" y1="452.1563" y2="452.1563"/><polygon fill="#A80036" points="640.5,448.1563,630.5,452.1563,640.5,456.1563,636.5,452.1563" style="stroke:#A80036;stroke-width:1.0;"/><text fill="#000000" font-family="sans-serif" font-size="13" lengthAdjust="spacing" textLength="39" x="636.5" y="434.2998">Use UI</text><polygon fill="#A80036" points="360,478.5078,350,482.5078,360,486.5078,356,482.5078" style="stroke:#A80036;stroke-width:1.0;"/><line style="stroke:#A80036;stroke-width:1.0;" x1="354" x2="623.5" y1="482.5078" y2="482.5078"/><text fill="#000000" font-family="sans-serif" font-size="13" lengthAdjust="spacing" textLength="77" x="366" y="477.6514">Accept quest</text><polygon fill="#A80036" points="272,508.8594,262,512.8594,272,516.8594,268,512.8594" style="stroke:#A80036;stroke-width:1.0;"/><line style="stroke:#A80036;stroke-width:1.0;" x1="266" x2="348" y1="512.8594" y2="512.8594"/><text fill="#000000" font-family="sans-serif" font-size="13" lengthAdjust="spacing" textLength="34" x="278" y="508.0029">Setup</text><line style="stroke:#A80036;stroke-width:1.0;" x1="443" x2="433" y1="543.2109" y2="539.2109"/><line style="stroke:#A80036;stroke-width:1.0;" x1="443" x2="433" y1="543.2109" y2="547.2109"/><line style="stroke:#A80036;stroke-width:1.0;" x1="261" x2="444" y1="543.2109" y2="543.2109"/><text fill="#000000" font-family="sans-serif" font-size="13" lengthAdjust="spacing" textLength="140" x="268" y="538.3545">Register Depart Triggers</text><line style="stroke:#A80036;stroke-width:1.0;" x1="516" x2="506" y1="573.5625" y2="569.5625"/><line style="stroke:#A80036;stroke-width:1.0;" x1="516" x2="506" y1="573.5625" y2="577.5625"/><line style="stroke:#A80036;stroke-width:1.0;" x1="261" x2="517" y1="573.5625" y2="573.5625"/><text fill="#000000" font-family="sans-serif" font-size="13" lengthAdjust="spacing" textLength="168" x="268" y="568.7061">Register ToNPC Triggers aaa</text><text fill="#000000" font-family="sans-serif" font-size="11" lengthAdjust="spacing" textLength="99" x="361" y="606.9814">Rider Moves Around</text><polygon fill="#A80036" points="433,641.75,443,645.75,433,649.75,437,645.75" style="stroke:#A80036;stroke-width:1.0;"/><line style="stroke:#A80036;stroke-width:1.0;" x1="349" x2="439" y1="645.75" y2="645.75"/><text fill="#000000" font-family="sans-serif" font-size="13" lengthAdjust="spacing" textLength="72" x="356" y="640.8936">TriggerLeave</text><polygon fill="#A80036" points="272,672.1016,262,676.1016,272,680.1016,268,676.1016" style="stroke:#A80036;stroke-width:1.0;"/><line style="stroke:#A80036;stroke-width:1.0;" x1="266" x2="449" y1="676.1016" y2="676.1016"/><text fill="#000000" font-family="sans-serif" font-size="13" lengthAdjust="spacing" textLength="67" x="278" y="671.2451">Start Quest</text><text fill="#000000" font-family="sans-serif" font-size="11" lengthAdjust="spacing" textLength="99" x="361" y="709.5205">Rider Moves Around</text><polygon fill="#A80036" points="506,744.2891,516,748.2891,506,752.2891,510,748.2891" style="stroke:#A80036;stroke-width:1.0;"/><line style="stroke:#A80036;stroke-width:1.0;" x1="349" x2="512" y1="748.2891" y2="748.2891"/><text fill="#000000" font-family="sans-serif" font-size="13" lengthAdjust="spacing" textLength="70" x="356" y="743.4326">TriggerEnter</text><polygon fill="#A80036" points="272,779.6406,262,783.6406,272,787.6406,268,783.6406" style="stroke:#A80036;stroke-width:1.0;"/><line style="stroke:#A80036;stroke-width:1.0;" x1="266" x2="522" y1="783.6406" y2="783.6406"/><text fill="#000000" font-family="sans-serif" font-size="13" lengthAdjust="spacing" textLength="35" x="278" y="778.7842">Finish</text><path d="M533,761.2891 L533,787.2891 L631,787.2891 L631,771.2891 L621,761.2891 L533,761.2891 " fill="#FBFB77" filter="url(#fuyrnn5lay2ea)" style="stroke:#A80036;stroke-width:1.0;"/><path d="M621,761.2891 L621,771.2891 L631,771.2891 L621,761.2891 " fill="#FBFB77" style="stroke:#A80036;stroke-width:1.0;"/><text fill="#000000" font-family="sans-serif" font-size="13" lengthAdjust="spacing" textLength="77" x="539" y="779.7842">If doing quest</text><!--MD5=[b039786d118f03776566dfb97d498709]
@startuml Quest2

title Quest 2 Design

' skinparam sequenceMessageAlign direction
skinparam ParticipantPadding 30
' skinparam BoxPadding 10

participant "Director / Editor" as Director
participant Quest
actor Rider
entity "NPC From" as FromNpc
entity "NPC To" as ToNpc
participant QuestUi
entity Order

[o-> Director : Scene Start
Director -> Quest ** : Create(Order)
Quest -> Order ++ : Read FromNPC
Order - -> Quest - - : FromNPC
Quest ->> FromNpc ++ : Register FromNPC Triggers

... Rider Moves Around ...

Rider -> FromNpc : TriggerEnter
note left: may swap trigger caller
FromNpc -> QuestUi - -++ : Show Quest UI(Quest)
QuestUi -> QuestUi : Use UI
QuestUi -> Rider - - : Accept quest
Rider -> Quest : Setup
Quest ->> FromNpc ++ : Register Depart Triggers
Quest ->> ToNpc ++ : Register ToNPC Triggers aaa

... Rider Moves Around ...

Rider -> FromNpc : TriggerLeave
FromNpc -> Quest - - : Start Quest

... Rider Moves Around ...

Rider -> ToNpc : TriggerEnter
ToNpc -> Quest - - : Finish
note right : If doing quest
...


@enduml

@startuml Quest2

title Quest 2 Design

skinparam ParticipantPadding 30

participant "Director / Editor" as Director
participant Quest
actor Rider
entity "NPC From" as FromNpc
entity "NPC To" as ToNpc
participant QuestUi
entity Order

[o-> Director : Scene Start
Director -> Quest ** : Create(Order)
Quest -> Order ++ : Read FromNPC
Order - -> Quest - - : FromNPC
Quest ->> FromNpc ++ : Register FromNPC Triggers

... Rider Moves Around ...

Rider -> FromNpc : TriggerEnter
note left: may swap trigger caller
FromNpc -> QuestUi - -++ : Show Quest UI(Quest)
QuestUi -> QuestUi : Use UI
QuestUi -> Rider - - : Accept quest
Rider -> Quest : Setup
Quest ->> FromNpc ++ : Register Depart Triggers
Quest ->> ToNpc ++ : Register ToNPC Triggers aaa

... Rider Moves Around ...

Rider -> FromNpc : TriggerLeave
FromNpc -> Quest - - : Start Quest

... Rider Moves Around ...

Rider -> ToNpc : TriggerEnter
ToNpc -> Quest - - : Finish
note right : If doing quest
...


@enduml

PlantUML version 1.2021.16(Thu Dec 09 01:25:22 GMT+08:00 2021)
(GPL source distribution)
Java Runtime: Java(TM) SE Runtime Environment
JVM: Java HotSpot(TM) 64-Bit Server VM
Default Encoding: Cp1252
Language: en
Country: HK
--></g></svg>